<?xml version="1.0" standalone="no"?>
<!DOCTYPE svg PUBLIC "-//W3C//DTD SVG 20010904//EN"
 "http://www.w3.org/TR/2001/REC-SVG-20010904/DTD/svg10.dtd">
<svg version="1.0" xmlns="http://www.w3.org/2000/svg"
 width="1660.000000pt" height="429.000000pt" viewBox="0 0 1660.000000 429.000000"
 preserveAspectRatio="xMidYMid meet">
<rect width="100%" height="100%" fill="#FFFFFF" />
<g transform="translate(0.000000,429.000000) scale(0.100000,-0.100000)"
fill="#000000" stroke="none">
<path d="M3995 4094 c-11 -8 -30 -12 -42 -9 -19 4 -23 1 -23 -17 0 -12 -10
-32 -22 -45 -12 -13 -27 -39 -33 -57 -11 -30 -10 -37 8 -54 19 -20 19 -22 3
-55 -20 -43 -20 -61 -1 -77 11 -9 12 -16 3 -30 -9 -14 -9 -25 0 -44 6 -14 9
-40 5 -58 -4 -19 -2 -29 3 -25 6 3 16 2 24 -3 12 -8 13 -15 2 -42 -10 -28 -9
-40 13 -94 14 -35 27 -89 29 -121 3 -32 7 -67 11 -78 5 -17 -6 -27 -61 -58
-50 -28 -70 -35 -80 -26 -19 16 -55 1 -87 -35 l-27 -31 -16 21 c-14 20 -17 21
-57 7 -33 -11 -46 -12 -61 -3 -15 10 -23 7 -46 -15 -22 -21 -32 -25 -47 -17
-46 25 -112 -26 -86 -67 14 -23 -1 -41 -34 -41 -13 0 -23 -2 -23 -5 0 -15 68
-64 89 -65 13 0 41 -5 63 -12 32 -9 53 -8 116 6 42 10 93 23 112 31 19 7 58
13 86 13 29 0 67 5 85 11 39 13 139 23 139 14 0 -4 -6 -14 -14 -22 -22 -26
-29 -86 -11 -101 11 -9 14 -22 10 -41 -5 -23 -3 -28 17 -31 17 -2 22 -8 20
-25 -3 -23 12 -31 23 -13 3 6 13 10 22 10 11 0 13 -5 8 -17 -11 -27 -15 -133
-5 -133 5 0 12 5 15 10 3 6 17 10 30 10 22 0 23 -3 21 -60 -3 -67 -9 -78 -30
-61 -17 14 -36 7 -36 -14 0 -8 15 -29 34 -48 70 -70 80 -107 30 -107 -30 0
-31 -15 -3 -31 15 -8 18 -14 10 -22 -31 -31 -1 -76 60 -91 31 -7 42 -27 33
-62 -6 -22 -7 -23 -35 -9 -56 30 -66 11 -20 -41 25 -28 30 -30 36 -16 6 16 7
16 16 0 6 -10 21 -18 34 -18 31 0 43 -20 21 -35 -13 -10 -14 -18 -7 -38 6 -15
12 -49 14 -77 5 -61 11 -69 35 -47 10 10 25 17 34 17 17 0 38 -41 38 -75 0
-27 13 -31 54 -15 33 12 33 37 1 52 -22 10 -25 17 -25 68 0 31 -5 61 -12 68
-9 9 -9 15 0 24 8 8 8 17 1 30 -6 10 -8 27 -5 36 4 10 0 27 -8 37 -13 18 -14
17 -21 -13 -12 -58 -34 -47 -50 25 -6 29 -4 33 20 39 19 5 30 2 39 -12 13 -17
14 -17 25 4 6 11 11 32 11 47 0 22 -3 25 -24 19 -20 -5 -24 -1 -28 26 -3 20 0
34 10 39 12 7 12 12 1 32 -7 13 -11 43 -10 67 1 25 -4 58 -14 78 -11 23 -13
40 -7 51 11 21 6 41 -16 65 -10 12 -13 28 -8 48 3 20 0 42 -9 61 -18 33 -46
184 -39 204 6 15 -18 66 -38 83 -19 15 -15 100 6 120 9 9 34 17 55 17 22 1 48
8 58 17 16 14 21 15 43 3 32 -18 56 -19 63 -1 3 8 23 16 44 19 106 14 183 30
232 49 47 19 56 27 77 72 13 28 24 56 24 62 0 18 -60 56 -73 46 -7 -5 -21 -6
-32 -2 -11 4 -32 6 -46 3 -15 -3 -36 0 -47 6 -15 8 -23 6 -37 -9 -10 -11 -24
-20 -30 -20 -7 0 -18 -7 -25 -15 -7 -9 -19 -14 -27 -11 -8 3 -23 0 -33 -6 -15
-10 -22 -10 -32 0 -16 16 -43 15 -57 -2 -7 -8 -28 -14 -49 -14 -29 0 -42 -7
-64 -33 -27 -32 -32 -32 -29 3 2 18 -34 42 -49 33 -6 -3 -10 -15 -10 -26 0
-24 -9 -24 -27 -1 -25 32 -34 66 -38 146 -2 43 -9 84 -15 90 -5 5 -10 21 -10
33 0 13 -6 36 -14 51 -7 15 -16 42 -20 61 -3 19 -12 42 -20 50 -8 9 -16 45
-20 81 -3 36 -10 90 -16 120 -6 30 -13 76 -14 103 -3 43 -19 77 -35 77 -3 0
-15 -7 -26 -16z m405 -2085 c0 -24 -23 -21 -28 4 -2 10 3 17 12 17 10 0 16 -9
16 -21z"/>
<path d="M2451 3914 c-12 -15 -21 -33 -21 -40 0 -8 -4 -14 -10 -14 -5 0 -10
-4 -10 -10 0 -5 7 -10 15 -10 22 0 18 -27 -5 -40 -18 -10 -20 -18 -15 -85 l5
-75 -30 0 c-23 0 -30 -5 -30 -19 0 -23 20 -62 42 -84 15 -15 14 -19 -4 -57
-13 -26 -27 -40 -39 -40 -10 0 -19 -7 -19 -15 0 -9 9 -15 25 -15 31 0 34 -29
5 -37 -24 -6 -25 -20 -4 -44 13 -14 13 -20 2 -38 -11 -19 -10 -24 10 -40 l24
-17 -21 -15 c-17 -11 -24 -34 -37 -129 -8 -64 -13 -139 -10 -170 9 -80 9 -100
-1 -145 -6 -31 -13 -41 -31 -43 -28 -4 -37 -24 -23 -51 8 -14 8 -22 0 -27 -7
-4 -9 -21 -6 -42 4 -19 2 -43 -4 -54 -7 -13 -7 -29 0 -48 7 -21 6 -32 -4 -40
-21 -17 -26 -68 -10 -94 13 -20 13 -26 -5 -59 -11 -20 -17 -43 -14 -51 6 -16
-18 -103 -37 -135 -8 -11 -19 -21 -25 -21 -7 0 -15 -7 -18 -16 -5 -13 -9 -14
-21 -4 -21 18 -42 6 -42 -25 0 -34 -7 -39 -31 -24 -25 16 -52 5 -52 -21 0 -18
-3 -19 -20 -10 -11 6 -20 20 -20 31 0 15 -5 19 -16 15 -9 -3 -27 -9 -40 -12
-21 -5 -24 -12 -24 -53 0 -25 5 -53 10 -61 5 -8 10 -11 10 -7 0 5 10 1 22 -7
12 -9 28 -16 35 -16 22 0 14 27 -13 45 -32 21 -20 37 30 40 20 1 36 1 36 -1 0
-1 -4 -14 -10 -29 -9 -23 -7 -27 18 -38 15 -6 30 -16 33 -20 9 -13 51 2 46 16
-2 7 -12 14 -23 16 -21 3 -54 29 -54 42 0 5 9 13 19 19 17 8 28 2 70 -38 28
-27 51 -53 51 -57 0 -5 -12 -21 -27 -37 l-27 -28 20 -22 c27 -31 25 -92 -3
-96 -16 -2 -19 -9 -15 -33 4 -24 0 -31 -17 -36 -28 -7 -28 -43 -1 -43 11 0 23
7 26 15 10 24 21 17 28 -17 7 -36 -7 -59 -26 -40 -7 7 -20 12 -31 12 -16 0
-17 -5 -12 -43 5 -34 3 -47 -14 -69 -19 -24 -20 -28 -6 -54 18 -34 20 -90 4
-100 -7 -4 -9 -24 -6 -50 3 -30 0 -47 -9 -55 -18 -15 -18 -27 1 -45 13 -13 13
-19 -2 -52 -20 -44 -25 -140 -8 -150 6 -4 20 -22 31 -40 22 -38 10 -69 -25
-64 -16 3 -21 -2 -23 -20 -2 -37 4 -122 10 -132 3 -5 6 -38 8 -73 3 -75 18
-101 33 -60 13 35 29 34 69 -2 36 -34 39 -43 17 -61 -17 -14 -17 -14 -32 13
-9 16 -12 15 -34 -17 -13 -20 -27 -36 -31 -36 -5 0 -8 -9 -8 -20 0 -11 5 -20
10 -20 6 0 10 6 10 13 0 7 5 18 12 25 9 9 16 8 29 -4 13 -11 15 -23 9 -49 -5
-24 -4 -40 6 -52 7 -10 14 -26 14 -35 0 -10 5 -18 11 -18 7 0 9 11 6 29 -8 38
-1 42 34 23 32 -19 36 -43 15 -84 -10 -19 -11 -29 -3 -37 18 -18 27 -13 42 21
10 25 10 35 2 41 -9 5 -7 11 6 21 22 17 22 45 0 61 -13 10 -14 17 -5 45 7 20
8 37 3 44 -15 18 -16 89 -2 114 7 13 12 38 12 55 -1 89 0 109 9 131 7 20 5 27
-13 39 -21 14 -22 16 -4 45 9 17 17 46 17 66 0 20 6 52 14 71 8 19 18 56 22
82 4 26 10 57 14 69 5 11 5 27 0 34 -5 8 -2 23 7 37 17 26 13 114 -7 138 -9
10 -6 26 9 61 12 25 21 54 21 63 0 9 5 22 12 29 7 7 12 43 13 84 0 40 4 80 7
88 4 8 9 53 12 100 6 115 59 220 109 220 11 0 45 12 75 26 46 22 59 24 75 15
15 -10 22 -9 36 3 10 9 31 16 48 16 17 0 36 7 43 15 8 9 30 15 60 15 33 0 55
6 74 21 14 11 31 17 37 13 6 -3 15 0 20 7 13 22 106 19 166 -4 45 -18 52 -24
55 -51 2 -22 9 -32 23 -34 33 -6 45 -22 45 -59 0 -22 8 -42 23 -56 12 -13 21
-31 19 -40 -2 -10 1 -24 7 -31 6 -7 12 -22 14 -34 2 -12 10 -29 18 -39 45 -54
99 -170 99 -213 0 -7 8 -24 18 -38 10 -15 24 -43 32 -62 7 -19 18 -40 24 -45
25 -23 56 -75 56 -94 0 -11 16 -32 35 -47 27 -20 34 -31 29 -49 -4 -17 3 -31
25 -54 17 -18 31 -40 31 -51 0 -12 8 -20 22 -22 16 -2 24 -12 29 -36 8 -40 35
-72 61 -72 15 0 17 -5 12 -25 -4 -18 1 -33 20 -56 15 -18 30 -45 33 -60 4 -20
12 -29 24 -29 23 0 25 -18 4 -26 -19 -8 -20 -33 -1 -40 17 -7 72 21 78 38 3 7
5 -9 5 -35 1 -35 7 -53 20 -63 17 -13 17 -15 1 -25 -24 -14 -23 -29 2 -29 13
0 24 10 30 25 13 34 31 32 24 -2 -4 -23 4 -37 48 -82 55 -56 75 -53 45 6 -8
15 -20 49 -28 76 -7 26 -17 47 -21 47 -4 0 -8 12 -8 26 0 16 -7 28 -18 31 -14
3 -18 15 -19 51 -1 26 -9 76 -19 111 l-17 63 -15 -27 c-13 -25 -15 -26 -30
-11 -14 13 -14 19 -2 41 11 21 12 30 2 45 -7 11 -12 29 -12 40 0 11 -7 20 -15
20 -8 0 -15 -7 -15 -16 0 -9 -5 -13 -12 -10 -7 3 -21 9 -31 12 -22 8 -16 30 7
26 18 -3 22 13 6 23 -5 3 -10 15 -10 25 0 11 -9 24 -20 30 -16 9 -18 15 -10
36 13 33 13 34 -6 34 -16 0 -46 60 -48 98 -1 13 -9 28 -19 33 -9 6 -17 19 -17
30 0 30 -28 79 -45 79 -8 0 -15 3 -16 8 -9 83 -20 114 -61 168 -21 29 -48 54
-60 57 -17 5 -20 11 -14 41 4 20 2 37 -4 41 -5 3 -10 15 -10 25 0 11 -8 24
-19 29 -13 8 -20 27 -25 70 -6 55 -9 60 -29 58 -18 -2 -23 4 -25 28 -2 17 -8
34 -13 39 -5 6 -9 20 -9 32 0 12 -6 24 -14 27 -8 3 -17 25 -21 48 -7 39 -5 45
21 66 16 13 36 23 44 23 20 0 42 37 36 58 -7 22 -56 41 -89 35 -19 -4 -32 5
-69 49 -54 63 -78 107 -78 143 0 17 -8 29 -25 37 -19 8 -26 21 -30 57 -7 53
-7 53 -40 106 -13 22 -29 50 -36 62 -6 12 -20 24 -30 26 -15 4 -19 15 -19 55
0 46 -3 53 -36 80 -31 26 -38 42 -43 95 -1 4 -9 7 -20 7 -26 0 -44 23 -29 38
7 7 18 12 25 12 19 0 16 14 -8 28 -14 9 -19 20 -16 33 3 10 1 22 -4 25 -5 3
-9 22 -9 43 0 22 -6 44 -15 51 -9 7 -23 29 -32 49 -8 20 -31 69 -49 109 -19
40 -34 80 -34 88 0 9 -14 35 -31 60 -19 27 -34 66 -39 101 -6 38 -18 65 -35
83 -14 14 -25 37 -25 49 0 29 -37 91 -54 91 -7 0 -17 -5 -24 -12 -9 -9 -13 -7
-18 5 -8 22 -30 22 -43 0 -9 -18 -10 -17 -72 15 -4 1 -16 -9 -28 -24z m229
-204 c0 -5 -4 -10 -10 -10 -5 0 -10 5 -10 10 0 6 5 10 10 10 6 0 10 -4 10 -10z
m40 -114 c0 -3 -4 -8 -10 -11 -5 -3 -10 -1 -10 4 0 6 5 11 10 11 6 0 10 -2 10
-4z m-37 -170 c6 -16 -16 -40 -26 -29 -4 3 -7 15 -7 25 0 21 25 24 33 4z m4
-72 c3 -8 -1 -23 -10 -32 -15 -14 -17 -14 -23 1 -8 21 1 47 16 47 6 0 13 -7
17 -16z m-11 -199 c-6 -34 -3 -45 16 -66 13 -13 36 -29 53 -34 29 -10 63 -60
50 -73 -3 -4 -20 1 -36 11 -60 34 -80 17 -50 -41 25 -49 45 -58 71 -32 11 11
26 17 35 14 19 -8 19 -38 0 -54 -24 -20 -19 -73 10 -100 18 -17 25 -34 25 -59
0 -29 6 -39 30 -53 20 -11 30 -25 30 -41 0 -12 6 -29 13 -35 6 -7 17 -36 22
-65 9 -45 13 -52 32 -49 42 6 95 -113 61 -135 -7 -4 -47 -10 -88 -13 -69 -5
-75 -7 -78 -28 -3 -17 -8 -21 -22 -17 -10 3 -25 -1 -33 -10 -14 -14 -17 -14
-24 0 -8 14 -14 14 -57 1 -26 -8 -58 -27 -72 -41 -23 -25 -26 -26 -43 -11 -26
24 -50 20 -57 -9 -8 -31 -31 -45 -65 -38 -25 5 -26 5 -21 86 3 50 10 88 18 98
9 10 14 39 14 78 0 53 3 64 19 68 17 4 19 15 20 81 0 42 6 102 12 134 7 32 9
85 6 116 -3 39 0 66 9 83 7 13 13 51 14 84 0 55 24 147 52 198 8 15 12 16 25
6 11 -10 13 -24 9 -54z m-188 -78 c2 -10 -3 -17 -11 -17 -16 0 -30 24 -19 34
10 10 27 1 30 -17z m-10 -130 c-3 -36 -27 -47 -51 -22 -19 19 -13 42 14 50 10
4 19 14 19 23 1 15 2 15 11 -1 6 -9 9 -32 7 -50z m752 -436 c0 -11 -5 -23 -11
-27 -15 -9 -33 12 -26 30 9 23 37 20 37 -3z m-816 -92 c-3 -5 -12 -9 -20 -9
-14 0 -20 31 -7 44 9 9 34 -24 27 -35z m816 31 c0 -5 -4 -10 -10 -10 -5 0 -10
5 -10 10 0 6 5 10 10 10 6 0 10 -4 10 -10z m-57 -81 c6 -9 7 -24 4 -33 -5 -13
-11 -15 -26 -7 -21 12 -34 38 -25 52 8 14 35 7 47 -12z m-158 -79 c10 -16 -16
-43 -28 -31 -11 11 -2 41 12 41 5 0 13 -5 16 -10z m-271 -56 c4 -10 1 -14 -6
-12 -15 5 -23 28 -10 28 5 0 13 -7 16 -16z m122 -11 c-10 -10 -19 5 -10 18 6
11 8 11 12 0 2 -7 1 -15 -2 -18z m-201 -73 c3 -5 1 -10 -4 -10 -6 0 -11 5 -11
10 0 6 2 10 4 10 3 0 8 -4 11 -10z m40 -31 c10 -15 -1 -23 -20 -15 -9 3 -13
10 -10 16 8 13 22 13 30 -1z m-240 -44 c0 -28 -29 -25 -33 3 -3 19 0 23 15 20
10 -2 18 -12 18 -23z m1365 -970 c0 -8 -4 -15 -9 -15 -13 0 -22 16 -14 24 11
11 23 6 23 -9z m-1656 -90 c3 -8 1 -15 -4 -15 -6 0 -10 7 -10 15 0 8 2 15 4
15 2 0 6 -7 10 -15z m1796 -135 c0 -5 -4 -10 -10 -10 -5 0 -10 5 -10 10 0 6 5
10 10 10 6 0 10 -4 10 -10z m-1720 -239 c0 -6 -4 -13 -10 -16 -5 -3 -10 1 -10
9 0 9 5 16 10 16 6 0 10 -4 10 -9z"/>
<path d="M10668 2840 c-238 -40 -372 -193 -340 -387 13 -77 41 -124 95 -162
84 -58 171 -75 442 -90 104 -6 201 -17 231 -25 95 -29 151 -82 161 -153 12
-88 -45 -171 -149 -219 -60 -28 -70 -29 -203 -29 -174 0 -268 23 -432 105
l-113 57 -26 -46 c-15 -25 -35 -60 -46 -78 l-19 -32 63 -35 c295 -164 723
-198 928 -73 60 36 131 109 158 162 37 72 43 206 12 287 -60 159 -220 233
-530 244 -259 9 -345 31 -377 98 -38 80 20 161 140 198 59 18 86 20 181 15
132 -6 237 -36 365 -103 46 -24 85 -44 86 -44 2 0 24 33 49 74 33 55 42 77 33
84 -25 20 -165 86 -232 109 -140 47 -341 66 -477 43z"/>
<path d="M180 2225 l0 -595 90 0 90 0 2 425 3 426 224 -326 c124 -179 227
-325 230 -325 3 1 105 145 226 322 l220 321 3 -421 2 -422 95 0 95 0 0 595 0
595 -78 0 -78 0 -238 -340 c-131 -187 -241 -342 -245 -344 -4 -3 -115 150
-246 339 l-240 344 -77 1 -78 0 0 -595z"/>
<path d="M5190 2225 l0 -595 90 0 90 0 0 275 0 275 420 0 420 0 0 -275 0 -275
90 0 90 0 0 595 0 595 -90 0 -90 0 0 -230 0 -230 -420 0 -420 0 0 230 0 230
-90 0 -90 0 0 -595z"/>
<path d="M7080 2225 l0 -595 95 0 95 0 2 411 3 411 373 -411 373 -411 50 0 49
0 0 595 0 595 -90 0 -90 0 -2 -416 -3 -416 -375 416 -375 415 -52 1 -53 0 0
-595z"/>
<path d="M9098 2648 c-48 -95 -184 -363 -302 -595 l-216 -423 100 0 100 0 75
150 75 150 314 0 315 0 77 -150 77 -150 99 0 c61 0 98 4 96 10 -1 5 -138 273
-303 595 l-300 585 -60 0 -60 0 -87 -172z m262 -328 c60 -121 110 -222 110
-225 0 -3 -101 -5 -225 -5 -124 0 -225 3 -225 7 0 7 223 443 227 443 2 0 52
-99 113 -220z"/>
<path d="M12070 2225 l0 -595 95 0 95 0 0 595 0 595 -95 0 -95 0 0 -595z"/>
<path d="M12962 2347 l3 -472 33 -67 c66 -134 180 -190 425 -207 127 -9 324 1
403 20 163 40 265 133 293 267 7 34 11 212 11 492 l0 440 -89 0 -90 0 -3 -432
c-3 -417 -4 -435 -24 -479 -53 -114 -110 -134 -379 -134 -226 0 -280 11 -338
69 -59 59 -60 69 -64 544 l-4 432 -90 0 -90 0 3 -473z"/>
<path d="M14820 2225 l0 -595 95 0 95 0 2 423 3 423 220 -319 c120 -175 222
-320 226 -323 4 -2 108 142 231 320 l223 324 3 -424 2 -424 95 0 95 0 0 595 0
596 -81 -3 -82 -3 -236 -337 c-130 -185 -239 -340 -243 -343 -3 -3 -115 149
-248 339 l-242 346 -79 0 -79 0 0 -595z"/>
<path d="M16306 2799 c-90 -70 -64 -210 44 -239 70 -19 141 21 160 90 14 53 2
97 -37 136 -30 30 -40 34 -87 34 -39 0 -60 -6 -80 -21z m150 -33 c27 -27 34
-42 34 -73 0 -38 -19 -76 -50 -100 -19 -15 -84 -17 -111 -3 -27 15 -49 62 -49
106 0 51 53 104 105 104 29 0 45 -8 71 -34z"/>
<path d="M16330 2685 c0 -60 3 -75 15 -75 10 0 15 11 15 35 0 38 2 40 31 25
11 -6 19 -21 19 -35 0 -16 6 -25 15 -25 18 0 19 9 5 44 -6 18 -6 34 2 51 16
36 -4 55 -58 55 l-44 0 0 -75z m74 42 c8 -14 8 -20 -4 -27 -27 -18 -40 -11
-40 21 0 23 4 30 16 27 9 -2 22 -11 28 -21z"/>
<path d="M1810 1991 c0 -21 5 -31 16 -31 11 0 14 8 12 27 -4 39 -28 42 -28 4z"/>
<path d="M4260 1974 c0 -8 5 -12 10 -9 6 3 10 10 10 16 0 5 -4 9 -10 9 -5 0
-10 -7 -10 -16z"/>
<path d="M1630 1930 c0 -5 9 -10 20 -10 11 0 20 5 20 10 0 6 -9 10 -20 10 -11
0 -20 -4 -20 -10z"/>
<path d="M1690 1925 c0 -8 5 -15 10 -15 6 0 10 7 10 15 0 8 -4 15 -10 15 -5 0
-10 -7 -10 -15z"/>
<path d="M1860 1899 c0 -11 5 -17 10 -14 6 3 10 13 10 21 0 8 -4 14 -10 14 -5
0 -10 -9 -10 -21z"/>
<path d="M3356 1671 c-4 -7 -5 -15 -2 -18 9 -9 19 4 14 18 -4 11 -6 11 -12 0z"/>
</g>
</svg>
