<?xml version="1.0" standalone="no"?>
<!DOCTYPE svg PUBLIC "-//W3C//DTD SVG 20010904//EN"
 "http://www.w3.org/TR/2001/REC-SVG-20010904/DTD/svg10.dtd">
<svg version="1.0" xmlns="http://www.w3.org/2000/svg"
 width="225.000000pt" height="225.000000pt" viewBox="0 0 225.000000 225.000000"
 preserveAspectRatio="xMidYMid meet" fill="#FFFFFF" fill-opacity="1.0">
<metadata>
Created by potrace 1.10, written by Peter Selinger 2001-2011
</metadata>
<rect width="100%" height="100%" fill="#FFFFFF" />
<g transform="translate(0.000000,225.000000) scale(0.100000,-0.100000)"
fill="#000000" stroke="none" fill-opacity="1.0">
<path d="M1057 2156 c-7 -19 18 -42 28 -26 8 13 -1 40 -14 40 -5 0 -11 -6 -14
-14z"/>
<path d="M1106 2155 c-6 -17 16 -31 33 -21 13 9 2 36 -14 36 -7 0 -16 -7 -19
-15z"/>
<path d="M1164 2155 c-3 -8 -3 -19 1 -25 10 -16 35 7 28 26 -7 18 -22 18 -29
-1z"/>
<path d="M955 2150 c-10 -16 16 -43 28 -31 11 11 2 41 -12 41 -5 0 -13 -5 -16
-10z"/>
<path d="M1005 2150 c-8 -14 3 -30 21 -30 8 0 14 9 14 20 0 21 -24 28 -35 10z"/>
<path d="M1210 2140 c0 -15 5 -20 18 -18 9 2 17 10 17 18 0 8 -8 16 -17 18
-13 2 -18 -3 -18 -18z"/>
<path d="M1263 2144 c-9 -23 11 -38 26 -20 13 16 7 36 -10 36 -5 0 -12 -7 -16
-16z"/>
<path d="M905 2141 c-8 -15 3 -31 21 -31 9 0 14 7 12 17 -4 20 -24 28 -33 14z"/>
<path d="M1317 2144 c-14 -14 -7 -35 11 -32 9 2 17 10 17 17 0 16 -18 25 -28
15z"/>
<path d="M855 2130 c-10 -16 16 -43 28 -31 11 11 2 41 -12 41 -5 0 -13 -5 -16
-10z"/>
<path d="M1363 2124 c-9 -23 11 -38 26 -20 13 16 7 36 -10 36 -5 0 -12 -7 -16
-16z"/>
<path d="M805 2110 c-8 -14 3 -30 21 -30 8 0 14 9 14 20 0 21 -24 28 -35 10z"/>
<path d="M1410 2100 c0 -15 5 -20 18 -18 9 2 17 10 17 18 0 8 -8 16 -17 18
-13 2 -18 -3 -18 -18z"/>
<path d="M757 2096 c-8 -21 16 -39 31 -24 8 8 9 15 1 25 -15 17 -25 17 -32 -1z"/>
<path d="M1462 2098 c-8 -8 -9 -15 0 -25 14 -17 39 2 31 23 -6 17 -15 18 -31
2z"/>
<path d="M717 2084 c-14 -14 -7 -35 11 -32 9 2 17 10 17 17 0 16 -18 25 -28
15z"/>
<path d="M1505 2081 c-8 -15 3 -31 21 -31 9 0 14 7 12 17 -4 20 -24 28 -33 14z"/>
<path d="M667 2064 c-14 -15 -6 -34 14 -34 14 0 19 5 17 17 -3 18 -20 27 -31
17z"/>
<path d="M1075 2064 c-11 -2 -56 -11 -100 -20 -153 -30 -170 -36 -285 -94 -95
-49 -132 -75 -214 -152 -133 -124 -206 -239 -241 -378 -8 -30 -23 -80 -34
-110 -23 -63 -26 -134 -11 -294 17 -175 69 -293 222 -506 57 -79 154 -162 252
-215 51 -28 56 -28 73 -13 22 20 38 12 47 -24 9 -39 47 -54 151 -61 50 -4 106
-11 125 -17 59 -17 140 -11 258 19 109 28 152 50 152 77 0 22 20 27 39 10 25
-23 46 -20 83 12 18 16 64 50 101 76 86 61 120 95 174 176 24 36 57 84 74 106
29 39 46 93 111 349 5 22 8 94 5 160 -4 114 -7 127 -55 259 -55 149 -63 164
-110 213 -17 18 -38 47 -45 66 -21 48 -69 100 -130 138 -28 18 -93 59 -142 90
-84 54 -100 60 -240 93 -157 36 -227 47 -260 40z m178 -35 c192 -40 233 -54
320 -111 45 -30 106 -69 134 -87 59 -37 109 -90 128 -135 7 -17 25 -42 40 -56
42 -39 63 -81 116 -226 l49 -136 0 -142 c0 -114 -4 -153 -21 -206 -11 -36 -27
-96 -35 -133 -16 -79 -27 -102 -86 -179 -23 -31 -56 -78 -72 -104 -20 -32 -65
-73 -145 -133 -63 -47 -121 -90 -129 -94 -20 -13 -40 10 -53 57 -6 22 -22 56
-36 74 -28 38 -29 35 15 50 34 12 103 65 177 138 49 48 156 256 177 344 18 79
16 279 -5 371 -26 111 -151 309 -225 354 -18 11 -47 30 -65 42 -93 64 -235
122 -344 139 -34 5 -44 12 -54 37 l-13 30 -15 -31 c-11 -25 -21 -32 -44 -32
-56 0 -153 -31 -264 -85 -94 -46 -124 -67 -191 -132 -58 -56 -89 -97 -114
-148 -20 -38 -47 -92 -62 -120 -46 -89 -61 -257 -32 -374 8 -31 17 -77 21
-103 7 -52 34 -109 101 -209 42 -64 144 -157 233 -213 46 -29 47 -33 27 -55
-8 -9 -23 -41 -33 -71 -12 -36 -24 -56 -36 -58 -27 -5 -159 82 -225 147 -73
74 -166 205 -207 295 -58 125 -73 184 -84 328 -11 142 -5 216 22 278 9 19 27
73 41 120 35 117 108 226 219 329 139 128 273 197 457 236 135 29 188 30 313
4z m-100 -230 c10 17 15 36 12 41 -9 14 0 13 85 -10 104 -29 158 -50 210 -82
25 -15 68 -41 95 -57 28 -17 64 -45 81 -63 56 -60 173 -243 162 -253 -2 -2
-42 20 -90 48 l-87 52 -1 48 c0 51 1 52 32 36 11 -6 22 -9 24 -6 7 6 -52 33
-250 111 -92 37 -171 65 -174 62 -2 -3 4 -9 14 -13 121 -45 272 -110 273 -115
7 -40 -1 -418 -9 -418 -15 0 -13 393 2 408 9 9 -2 12 -49 12 -56 0 -69 4 -147
51 -48 29 -88 50 -91 48 -2 -3 31 -26 73 -52 66 -40 73 -47 49 -47 -18 0 -45
13 -71 35 -56 45 -71 46 -20 0 36 -32 37 -34 15 -35 -32 0 -72 45 -83 95 -9
39 -8 41 34 77 45 39 41 49 -8 23 -16 -8 -36 -15 -44 -15 -8 0 -22 -5 -30 -11
-11 -7 -4 -8 25 -3 39 6 39 6 22 -12 -14 -16 -22 -17 -47 -7 -33 12 -33 11 5
-42 39 -54 39 -57 -4 -36 -35 18 -41 26 -41 53 l0 32 -35 -50 c-20 -27 -40
-48 -46 -46 -6 1 -9 -6 -7 -15 3 -24 -9 -43 -29 -43 -14 0 -14 3 2 20 27 30
12 34 -15 5 -13 -14 -33 -25 -44 -25 -17 1 -10 11 34 50 30 28 51 50 47 50 -5
0 -34 -22 -66 -50 -45 -39 -65 -50 -91 -50 -32 0 -30 3 61 66 116 82 93 77
-30 -6 l-90 -60 -91 0 -90 0 0 -62 -1 -63 -80 -54 c-44 -29 -78 -56 -75 -58 2
-3 38 18 80 46 l76 52 0 -55 c0 -54 -1 -56 -52 -103 -82 -75 -175 -168 -153
-152 11 7 62 51 113 98 l92 83 0 -57 0 -57 -96 -109 c-53 -61 -94 -112 -92
-115 3 -2 45 41 94 97 l89 101 3 -76 3 -77 -76 -109 c-42 -61 -72 -110 -67
-110 5 0 28 28 50 63 23 34 53 77 67 96 l25 35 0 -45 c0 -38 -4 -48 -24 -57
-16 -7 -25 -22 -29 -46 -3 -20 -15 -48 -26 -63 -12 -14 -21 -36 -21 -49 0 -33
34 -64 69 -64 36 0 47 -14 56 -67 9 -59 -11 -57 -68 7 -66 74 -136 198 -147
261 -5 30 -16 83 -24 119 -28 117 -15 267 31 355 14 28 43 84 64 125 58 114
85 135 220 174 195 57 260 78 255 83 -4 4 -221 -57 -331 -92 -30 -10 29 40 90
76 45 26 59 29 138 29 48 0 87 4 87 9 0 6 -33 7 -77 4 -43 -3 -76 -3 -73 0 11
11 179 66 223 72 41 6 46 5 41 -9 -4 -10 -19 -16 -38 -17 -17 -1 -41 -4 -54
-7 -23 -7 -23 -7 12 -41 27 -26 36 -44 37 -70 l1 -36 8 35 c8 31 5 39 -23 68
-36 38 -37 38 37 13 55 -19 56 -19 46 -1 -6 10 -15 22 -20 25 -6 4 -1 23 13
48 l22 42 5 -63 5 -64 18 31z m92 -189 c4 -6 -5 -10 -19 -10 -16 0 -26 6 -26
14 0 8 -4 18 -10 21 -6 4 -9 -3 -7 -16 3 -33 -19 -34 -32 -2 -11 27 -11 27 -6
-8 4 -25 1 -40 -9 -48 -21 -17 -29 2 -21 47 8 42 -1 39 -14 -5 -6 -20 -4 -35
5 -48 20 -27 17 -41 -4 -22 -11 10 -33 16 -53 16 -34 -2 -34 -2 -4 -6 39 -6
73 -38 73 -69 l0 -25 -22 20 c-12 12 -33 21 -47 20 -21 -1 -20 -2 7 -10 43
-12 58 -34 60 -86 l2 -44 -24 21 c-12 12 -29 20 -36 17 -9 -4 -9 -6 3 -6 17
-1 65 -48 57 -56 -2 -3 -13 4 -23 15 -19 21 -65 28 -65 9 0 -6 8 -8 18 -4 20
6 72 -28 72 -47 0 -6 -8 -4 -17 4 -24 21 -63 32 -63 19 0 -6 9 -11 20 -11 26
0 58 -36 58 -66 l0 -25 -22 20 c-21 19 -33 21 -167 19 l-144 -2 147 -5 c177
-7 182 -10 184 -102 l1 -60 -21 21 c-12 11 -31 20 -42 20 -13 -1 -10 -5 12
-14 40 -18 48 -31 50 -84 l2 -43 -24 21 c-12 12 -29 20 -36 17 -9 -4 -9 -6 3
-6 17 -1 65 -48 57 -56 -2 -3 -13 4 -23 15 -19 21 -65 28 -65 9 0 -6 8 -8 18
-4 20 6 72 -28 72 -47 0 -6 -8 -4 -17 4 -24 21 -63 32 -63 19 0 -6 9 -11 20
-11 26 0 58 -36 58 -66 l-1 -25 -21 20 c-12 12 -28 21 -36 21 -7 0 2 -10 21
-23 24 -16 34 -31 34 -49 1 -15 -3 -24 -7 -22 -4 3 -8 1 -8 -5 0 -5 4 -12 9
-15 10 -7 12 -56 1 -56 -4 0 -13 7 -20 15 -8 10 -31 15 -65 15 -38 0 -55 4
-59 15 -8 22 101 21 126 -2 10 -9 18 -11 18 -5 0 20 -38 32 -104 32 -37 0 -68
5 -72 11 -5 8 18 10 79 8 47 -2 83 -1 80 4 -2 4 -44 7 -94 7 -73 0 -92 3 -107
18 -10 10 -27 22 -38 27 -18 7 -17 8 6 15 24 8 23 8 -7 9 -41 1 -52 18 -16 24
18 2 10 5 -19 6 l-48 1 0 325 0 325 160 0 160 0 -1 28 c-1 16 -3 20 -6 10 -3
-11 -14 -18 -30 -18 -21 0 -24 2 -13 15 7 8 9 15 4 15 -5 1 11 11 36 24 l45
24 57 -29 c31 -16 59 -33 63 -39z m-558 -517 c-1 -93 -3 -17 -3 167 0 184 2
260 3 168 2 -93 2 -243 0 -335z m43 166 c0 -206 -4 -319 -10 -319 -6 0 -10
115 -10 326 0 214 3 323 10 319 6 -4 10 -123 10 -326z m30 0 c0 -206 -4 -319
-10 -319 -6 0 -10 115 -10 326 0 214 3 323 10 319 6 -4 10 -123 10 -326z m750
126 c0 -130 -4 -205 -10 -205 -6 0 -10 73 -10 198 0 175 3 212 17 212 2 0 3
-92 3 -205z m61 -14 c0 -116 -1 -221 -1 -233 0 -12 -3 -19 -6 -15 -5 4 -7 256
-4 466 0 2 2 2 5 -1 3 -3 6 -101 6 -217z m34 -15 c1 -125 -1 -229 -6 -232 -5
-3 -9 98 -9 232 0 131 3 235 6 231 3 -3 7 -107 9 -231z m-945 -101 c0 -179 -3
-325 -7 -325 -5 0 -8 146 -8 325 0 179 3 325 8 325 4 0 7 -146 7 -325z m818
118 l-3 -208 -55 -5 c-54 -6 -55 -6 -15 -11 39 -5 39 -5 15 -16 -14 -7 -19
-12 -12 -12 7 -1 10 -5 7 -11 -4 -6 -55 -10 -119 -10 -95 0 -117 -3 -133 -17
-10 -10 -14 -15 -9 -10 15 11 246 9 246 -3 0 -5 -21 -11 -47 -12 l-48 -2 48
-3 c26 -2 47 -8 47 -14 0 -5 -5 -9 -12 -9 -6 0 -3 -7 8 -15 17 -13 14 -14 -38
-15 -32 0 -58 -3 -58 -7 0 -5 25 -6 55 -5 43 3 55 1 55 -10 0 -12 -22 -15
-120 -14 -101 0 -123 -3 -135 -17 -8 -9 -10 -12 -3 -7 16 13 265 13 273 0 4
-6 -18 -11 -57 -12 l-63 -2 55 -3 c97 -5 120 -12 120 -34 0 -16 -5 -18 -27
-13 -16 4 -33 10 -38 15 -31 24 -214 22 -199 -3 4 -5 0 -15 -7 -20 -11 -7 -11
-11 -1 -15 6 -2 9 -9 6 -14 -3 -6 0 -16 6 -24 10 -13 8 -15 -17 -15 -16 0 -38
-6 -49 -14 -19 -13 -20 -12 -19 37 0 78 12 91 87 98 l63 6 -59 1 c-41 2 -65
-3 -76 -13 -15 -14 -17 -7 -16 89 1 87 4 107 20 125 11 12 29 22 40 22 18 1
18 2 3 6 -10 3 -28 -2 -40 -10 -22 -14 -23 -14 -22 37 0 59 10 81 45 95 20 8
21 10 6 10 -11 1 -27 -6 -36 -14 -15 -14 -17 -7 -16 89 1 87 4 107 20 125 11
12 26 21 35 22 11 0 12 2 3 6 -7 3 -23 -2 -36 -10 -22 -15 -23 -14 -21 13 3
57 12 60 186 60 l159 0 -2 -207z m238 31 c39 -24 75 -44 81 -44 10 0 39 -147
31 -155 -2 -3 -50 33 -105 78 l-102 82 0 48 c-1 36 2 46 12 41 6 -4 44 -27 83
-50z m112 -320 l3 -99 -52 52 -52 51 26 32 c31 37 31 33 7 85 -17 37 -19 38
-19 13 -2 -46 -51 -80 -51 -35 0 13 -9 32 -20 42 -11 10 -20 26 -20 37 0 10
-7 18 -15 18 -11 0 -15 11 -15 36 l0 35 103 -84 102 -85 3 -98z m-192 170 c-4
-10 3 -23 20 -36 20 -16 25 -28 22 -50 -4 -22 -1 -28 9 -23 8 3 19 5 23 5 5 0
18 10 30 22 l20 22 0 -26 c0 -20 -14 -37 -57 -72 -66 -52 -99 -58 -151 -26
-40 24 -79 26 -104 3 -25 -23 -23 -68 4 -87 27 -19 51 -20 103 -2 84 29 100
29 131 1 l29 -26 -42 6 c-34 5 -50 2 -86 -19 -50 -30 -117 -35 -141 -11 -17
17 -36 77 -36 113 0 57 61 122 114 122 l31 -1 -32 -14 c-18 -8 -33 -21 -33
-30 0 -13 11 -15 68 -13 l67 3 -3 39 c-3 27 0 36 7 31 7 -4 9 -16 5 -27 -4
-14 -2 -18 5 -14 17 11 13 41 -9 69 -24 30 -26 57 -4 57 11 0 14 -5 10 -16z
m184 -292 c0 -16 -54 -155 -80 -202 -15 -28 -20 -32 -25 -18 -6 16 37 105 58
119 17 12 -24 85 -74 132 l-51 47 33 24 34 23 52 -56 c29 -31 52 -62 53 -69z
m-340 73 c0 -47 -5 -52 -30 -34 -12 9 -13 12 -1 16 11 5 11 7 0 14 -12 8 -11
11 1 19 8 5 11 10 5 10 -8 0 14 19 23 20 1 0 2 -20 2 -45z m30 -6 c0 -31 -4
-48 -10 -44 -5 3 -10 26 -10 51 0 24 5 44 10 44 6 0 10 -23 10 -51z m30 1 c0
-22 -4 -40 -10 -40 -5 0 -10 18 -10 40 0 22 5 40 10 40 6 0 10 -18 10 -40z
m130 -85 c12 -15 6 -49 -13 -73 -8 -11 -13 -9 -23 10 -21 36 -18 78 5 78 10 0
24 -7 31 -15z m76 -28 c15 -32 15 -36 -9 -83 -45 -88 -60 -96 -199 -106 -67
-5 -149 -7 -182 -5 -49 2 -42 4 34 6 l95 3 -84 19 c-47 11 -104 28 -128 39
-40 18 -43 21 -43 58 0 62 34 66 186 27 110 -29 234 -34 253 -11 7 8 15 30 18
50 8 48 37 49 59 3z m-136 -17 c0 -22 -4 -40 -10 -40 -5 0 -10 18 -10 40 0 22
5 40 10 40 6 0 10 -18 10 -40z m-774 -23 c27 -23 61 -50 75 -59 14 -9 40 -38
57 -65 31 -48 32 -49 74 -44 l43 5 -45 7 -45 6 45 3 45 3 -50 7 -50 8 50 -2
c43 -1 50 -4 50 -21 0 -16 -8 -21 -37 -23 -45 -4 -47 -11 -10 -38 41 -31 89
-44 159 -44 55 0 67 3 87 25 26 28 61 33 70 9 3 -9 6 -30 6 -47 0 -29 -3 -32
-30 -33 -26 -1 -28 1 -18 14 11 13 10 15 -6 8 -19 -7 -19 -6 -1 14 20 22 10
27 -17 6 -17 -13 -14 -23 18 -65 2 -2 10 2 19 9 24 20 31 3 9 -21 -50 -57
-182 -76 -295 -43 -69 20 -149 100 -200 199 -24 47 -41 70 -52 69 -9 -1 -14 2
-12 7 10 15 -59 42 -123 47 l-63 5 3 36 c3 31 8 38 38 48 19 7 63 12 96 12 59
1 64 -1 110 -42z m-230 -127 c19 0 24 -5 24 -25 0 -19 -5 -25 -23 -25 -12 0
-33 7 -46 16 -18 13 -21 22 -16 43 4 14 12 32 18 40 10 12 13 8 15 -17 3 -26
8 -32 28 -32z m24 35 c0 -18 -5 -25 -20 -25 -15 0 -20 7 -20 25 0 18 5 25 20
25 15 0 20 -7 20 -25z m32 -35 c2 -38 -1 -60 -8 -60 -6 0 -11 25 -12 60 -2 78
15 78 20 0z m33 8 l0 -43 65 -6 65 -6 -72 -1 -73 -2 0 50 c0 28 3 50 8 50 4 0
7 -19 7 -42z m35 2 c0 -27 3 -29 43 -33 40 -3 40 -4 -10 -5 l-53 -2 0 41 c0
24 4 38 10 34 6 -3 10 -19 10 -35z m30 5 c0 -7 10 -16 23 -18 16 -3 13 -5 -10
-6 -29 -1 -33 2 -33 25 0 14 4 23 10 19 6 -3 10 -12 10 -20z m450 21 c0 -9
-72 -57 -77 -52 -10 10 39 56 59 56 10 0 18 -2 18 -4z m80 -43 c0 -13 5 -33
10 -43 6 -10 6 -21 2 -24 -17 -10 -84 18 -99 41 -15 22 -14 26 7 48 19 20 26
22 51 13 21 -7 29 -16 29 -35z m412 -56 c-26 -47 -194 -207 -216 -207 -3 0 -6
9 -6 20 0 10 -6 23 -13 27 -8 4 -23 38 -34 76 l-21 67 79 0 c44 0 79 -4 79 -9
0 -16 31 -83 36 -78 3 3 -2 22 -10 42 -21 48 -20 54 4 48 16 -4 20 0 20 18 0
18 9 28 38 40 33 14 38 14 49 1 10 -12 9 -21 -5 -45z m-552 18 c16 -19 4 -35
-25 -35 -13 0 -27 5 -30 10 -8 13 13 40 30 40 7 0 18 -7 25 -15z m420 5 c0 -6
-49 -9 -132 -8 l-133 2 125 6 c69 3 128 7 133 8 4 1 7 -2 7 -8z m-746 -28 c-6
-4 -14 -17 -18 -29 -8 -25 -14 -27 -35 -14 -8 5 -11 16 -8 25 4 9 2 16 -3 16
-21 0 -9 -36 20 -64 17 -16 28 -31 25 -34 -3 -3 -19 7 -35 23 -34 32 -43 29
-43 -17 l0 -31 -34 36 c-18 20 -33 46 -33 57 0 17 7 20 41 20 24 0 38 4 34 10
-4 6 14 10 47 10 29 0 48 -4 42 -8z m260 -7 c3 -9 19 -15 41 -15 22 0 38 6 41
15 4 8 14 15 23 15 14 0 14 -2 1 -10 -11 -7 -2 -10 32 -10 52 0 69 -13 39 -29
-46 -25 -169 -8 -211 29 l-23 20 25 0 c14 0 28 -7 32 -15z m338 8 c-24 -5 -24
-8 4 -103 18 -60 19 -57 -23 -65 -50 -9 -63 -21 -63 -57 0 -25 -4 -29 -22 -26
-37 5 -36 51 0 77 16 11 37 37 47 57 22 48 8 110 -28 117 -12 2 7 4 43 4 36 0
55 -2 42 -4z m-555 -58 c21 -33 28 -54 25 -76 -5 -37 -26 -47 -51 -25 -10 9
-23 16 -29 16 -14 0 -24 -33 -16 -56 3 -11 2 -15 -3 -9 -4 6 -14 10 -20 10
-22 0 -111 77 -106 92 3 7 9 13 13 13 13 0 50 -51 50 -68 0 -12 3 -13 12 -4 8
8 9 21 1 47 -13 41 -5 50 24 30 20 -14 20 -17 7 -60 -7 -25 -9 -43 -4 -40 5 3
12 21 16 40 6 31 8 33 30 23 29 -14 48 0 38 26 -4 11 -14 16 -25 13 -20 -5
-24 9 -13 51 9 32 18 28 51 -23z m89 -100 c25 -19 49 -35 54 -35 7 0 3 -66 -4
-77 -1 -1 -28 5 -61 14 -33 8 -68 15 -77 14 -10 0 -18 5 -18 11 0 6 9 8 20 5
24 -6 40 31 19 44 -10 6 -11 9 -1 9 6 0 12 11 12 25 0 14 2 25 5 25 3 0 25
-16 51 -35z m-100 -20 l36 -25 -25 -9 c-26 -10 -41 -35 -38 -63 3 -21 -47
-108 -61 -108 -16 0 0 71 23 103 13 18 20 42 19 65 -2 47 -1 62 5 62 2 0 21
-11 41 -25z m595 -19 c-26 -28 -26 -32 3 -75 31 -47 44 -101 23 -101 -22 0
-57 62 -57 99 0 26 -5 34 -29 42 -47 17 -46 37 2 49 23 6 47 12 52 14 22 7 25
-7 6 -28z m-343 -16 c30 0 32 -2 32 -35 l0 -35 -47 0 c-64 0 -77 10 -68 50 6
26 11 31 28 26 12 -3 37 -6 55 -6z m172 -13 c0 -18 -10 -26 -47 -40 -65 -23
-73 -22 -73 13 0 26 4 30 38 35 20 4 42 8 47 10 25 8 35 3 35 -18z m130 -63
c3 -21 16 -53 29 -71 23 -30 23 -33 8 -57 -18 -27 -16 -27 -147 -57 -103 -24
-202 -28 -265 -10 -22 6 -68 11 -103 11 -129 0 -165 42 -114 133 15 29 26 60
24 70 -4 21 -9 22 133 -8 143 -30 173 -30 245 -5 30 11 73 20 95 20 22 0 47 5
55 10 24 15 35 6 40 -36z"/>
<path d="M1062 2008 c-7 -7 -12 -18 -12 -24 0 -25 -20 -25 -32 0 -6 15 -20 26
-30 26 -17 0 -16 -5 11 -39 17 -21 31 -48 31 -60 0 -13 6 -21 16 -21 12 0 15
6 11 22 -3 12 3 39 14 61 10 23 19 42 19 44 0 7 -17 2 -28 -9z"/>
<path d="M883 1981 c-31 -8 -53 -20 -53 -28 0 -9 7 -12 25 -7 22 5 25 2 36
-40 7 -27 17 -46 25 -46 18 0 17 8 0 58 -14 40 -14 41 9 49 14 5 21 12 17 18
-5 8 -24 6 -59 -4z"/>
<path d="M1290 1970 c-39 -39 -14 -100 43 -100 55 0 79 73 35 104 -30 21 -54
20 -78 -4z m68 -22 c16 -16 15 -23 -4 -42 -19 -20 -29 -20 -48 0 -12 12 -13
20 -6 35 12 21 40 25 58 7z"/>
<path d="M1157 1963 c-3 -5 -2 -15 3 -22 10 -17 43 -6 38 12 -6 15 -34 22 -41
10z"/>
<path d="M774 1944 c-9 -4 -8 -12 1 -32 8 -15 18 -39 24 -54 6 -16 17 -28 26
-28 8 0 15 2 15 4 0 5 -51 116 -53 115 -1 0 -7 -3 -13 -5z"/>
<path d="M1437 1895 c-14 -29 -23 -56 -20 -59 12 -11 22 -6 28 15 6 19 8 19
30 5 18 -12 26 -13 31 -4 4 7 3 13 -3 15 -6 2 -19 10 -29 18 -18 13 -18 14 -1
20 10 4 28 0 42 -9 23 -15 25 -15 25 1 0 11 -15 24 -39 34 l-38 16 -26 -52z"/>
<path d="M677 1890 c-49 -39 -25 -86 30 -61 14 6 28 9 31 7 9 -10 -20 -36 -40
-36 -11 0 -18 -5 -16 -12 7 -20 21 -19 56 2 24 15 32 27 30 43 -2 17 -9 22
-33 21 -16 0 -34 -2 -40 -5 -5 -2 -12 1 -15 6 -3 6 10 14 28 20 18 5 31 14 29
20 -6 18 -33 16 -60 -5z"/>
<path d="M1583 1814 c-8 -21 13 -42 28 -27 13 13 5 43 -11 43 -6 0 -13 -7 -17
-16z"/>
<path d="M543 1798 c-18 -13 -33 -25 -32 -28 0 -3 18 -25 40 -49 27 -30 43
-41 50 -34 7 7 5 14 -6 23 -25 21 -17 32 23 28 39 -3 58 15 22 20 -13 2 -20
10 -19 20 3 34 -1 42 -24 42 -12 0 -37 -10 -54 -22z m57 -6 c0 -17 -38 -44
-45 -32 -4 6 1 18 11 25 22 16 34 19 34 7z"/>
<path d="M1671 1744 c-12 -15 -21 -32 -21 -39 0 -21 33 -54 57 -57 29 -4 30
12 1 26 -34 17 -32 60 3 64 22 3 29 -2 38 -28 10 -31 31 -33 31 -4 0 22 -46
64 -69 64 -11 0 -29 -12 -40 -26z"/>
<path d="M441 1697 l-30 -32 48 -42 48 -42 31 39 c24 29 28 39 17 43 -7 3 -20
-5 -30 -19 -19 -29 -40 -23 -24 7 14 28 3 36 -20 15 -29 -26 -34 -4 -6 26 37
40 5 44 -34 5z"/>
<path d="M1770 1621 c-34 -11 -50 -20 -42 -25 7 -4 20 -5 30 -2 24 8 48 -30
32 -49 -8 -10 -9 -19 -1 -32 6 -10 11 -13 11 -7 0 6 16 32 36 58 29 38 33 50
24 61 -15 18 -20 18 -90 -4z"/>
<path d="M375 1610 c-4 -6 7 -28 24 -49 17 -21 31 -41 31 -43 0 -3 -25 -3 -55
0 -76 6 -71 -14 6 -23 84 -10 91 1 46 70 -39 58 -42 61 -52 45z"/>
<path d="M1865 1498 c-27 -12 -51 -22 -53 -23 -1 -1 7 -23 18 -48 14 -32 25
-44 35 -41 13 5 13 9 0 27 -25 35 -18 53 25 67 22 7 40 19 40 27 0 17 -6 16
-65 -9z"/>
<path d="M297 1457 c-4 -14 98 -61 113 -52 17 10 11 22 -12 28 -13 2 -40 12
-60 21 -28 12 -37 13 -41 3z"/>
<path d="M270 1377 c0 -10 13 -18 35 -23 19 -3 35 -9 35 -13 0 -4 -19 -13 -42
-21 -58 -20 -55 -41 7 -57 63 -16 65 -16 65 1 0 7 -18 17 -42 22 l-43 10 53
19 c28 10 52 24 52 31 0 6 -20 17 -44 23 -24 6 -51 13 -60 17 -10 4 -16 1 -16
-9z"/>
<path d="M1913 1371 c-35 -10 -53 -21 -53 -32 0 -14 7 -13 60 4 34 11 60 26
60 33 0 16 0 16 -67 -5z"/>
<path d="M1975 1299 c-11 -4 -39 -8 -62 -8 -35 -1 -40 -4 -36 -19 3 -14 11
-18 29 -14 20 4 24 0 24 -22 0 -16 6 -26 15 -26 11 0 13 8 9 30 -5 23 -3 30
10 30 11 0 16 -9 16 -30 0 -21 5 -30 16 -30 13 0 14 8 8 48 -3 26 -7 48 -8 48
0 1 -10 -2 -21 -7z"/>
<path d="M240 1209 c0 -11 6 -16 18 -12 28 7 72 -14 72 -36 0 -24 -19 -31 -64
-24 -29 4 -36 2 -36 -11 0 -24 91 -23 113 2 36 40 11 82 -56 92 -41 6 -47 5
-47 -11z"/>
<path d="M1910 1148 c-51 -55 13 -124 81 -88 13 7 19 21 19 44 0 60 -60 87
-100 44z m75 -29 c14 -42 -45 -66 -61 -24 -10 25 4 45 30 45 16 0 27 -7 31
-21z"/>
<path d="M285 1030 c-4 -6 -1 -17 5 -26 15 -18 42 0 33 22 -6 16 -29 19 -38 4z"/>
<path d="M1880 996 c0 -9 8 -16 19 -16 35 0 33 -19 -4 -41 -25 -15 -33 -25
-26 -32 7 -7 15 -6 26 3 12 10 18 9 33 -9 22 -28 47 -19 61 21 19 53 15 65
-26 72 -21 3 -48 9 -60 12 -17 5 -23 2 -23 -10z m90 -50 c0 -24 -16 -43 -27
-32 -8 8 6 56 17 56 6 0 10 -11 10 -24z"/>
<path d="M366 921 c-4 -5 -2 -20 3 -34 10 -24 6 -37 -11 -37 -4 0 -8 9 -8 20
0 11 -7 20 -15 20 -11 0 -14 -7 -9 -25 4 -16 2 -25 -5 -25 -13 0 -31 41 -24
53 2 4 -3 7 -11 7 -19 0 -20 -10 -5 -60 l12 -38 59 20 c63 22 62 19 37 86 -9
24 -15 27 -23 13z"/>
<path d="M1840 844 c0 -7 17 -21 38 -30 l37 -17 -54 -11 c-30 -6 -56 -16 -58
-22 -2 -6 19 -21 47 -32 61 -26 64 -26 68 -13 2 6 -14 18 -35 27 l-38 17 52 9
c72 13 72 29 2 60 -45 20 -59 23 -59 12z"/>
<path d="M373 768 c-34 -19 -50 -34 -47 -43 5 -12 10 -12 29 1 22 14 24 14 34
-5 15 -28 14 -37 -9 -47 -13 -6 -17 -13 -11 -22 6 -10 19 -7 56 15 27 16 50
34 53 41 4 14 -24 16 -33 2 -10 -17 -21 -11 -34 17 -12 26 -8 34 24 47 7 2 7
7 0 14 -7 7 -27 1 -62 -20z"/>
<path d="M1768 708 c-6 -15 88 -82 102 -73 16 10 12 21 -12 33 -13 6 -37 20
-55 32 -23 15 -32 17 -35 8z"/>
<path d="M1732 658 c-8 -8 -7 -16 1 -28 15 -26 -7 -52 -38 -44 -44 11 -34 -14
13 -31 26 -10 52 -22 58 -26 7 -6 17 -2 27 9 14 16 15 21 3 38 -7 10 -22 36
-33 56 -14 27 -23 34 -31 26z"/>
<path d="M490 614 c-35 -34 -35 -34 -52 -14 -33 40 -30 -1 4 -44 24 -33 36
-41 46 -34 10 8 8 13 -5 24 -17 11 -15 15 22 47 26 23 37 39 30 45 -7 7 -22
-2 -45 -24z"/>
<path d="M607 484 c-14 -15 -6 -34 14 -34 14 0 19 5 17 17 -3 18 -20 27 -31
17z"/>
<path d="M1617 484 c-14 -15 -6 -34 14 -34 14 0 19 5 17 17 -3 18 -20 27 -31
17z"/>
<path d="M1260 1750 c0 -9 178 -25 186 -17 5 5 -17 8 -148 21 -21 2 -38 1 -38
-4z"/>
<path d="M790 1465 l0 -55 55 0 55 0 0 55 0 55 -55 0 -55 0 0 -55z m95 2 l0
-42 -42 -3 -43 -3 0 45 0 46 43 0 42 0 0 -43z"/>
<path d="M827 1483 c-2 -10 -8 -27 -12 -38 -6 -18 -5 -18 5 -2 6 9 16 17 22
17 6 0 17 -8 25 -17 12 -16 12 -15 2 9 -7 15 -16 25 -20 22 -5 -3 -6 2 -3 10
3 9 2 16 -4 16 -5 0 -12 -8 -15 -17z"/>
<path d="M1025 1513 c27 -3 58 -11 67 -20 11 -9 18 -11 18 -5 0 19 -37 32 -87
30 l-48 -2 50 -3z"/>
<path d="M910 1450 c0 -5 14 -10 30 -10 17 0 30 5 30 10 0 6 -13 10 -30 10
-16 0 -30 -4 -30 -10z"/>
<path d="M1000 1450 c0 -5 19 -10 43 -10 24 0 47 -3 53 -7 5 -5 1 0 -9 10 -20
18 -87 24 -87 7z"/>
<path d="M990 1413 c60 -3 90 -9 102 -20 20 -18 25 -4 6 15 -8 8 -43 11 -102
10 l-91 -2 85 -3z"/>
<path d="M850 1352 c0 -5 34 -8 75 -8 41 0 75 4 75 8 0 5 -34 8 -75 8 -41 0
-75 -4 -75 -8z"/>
<path d="M900 1320 c0 -5 16 -10 35 -10 19 0 35 5 35 10 0 6 -16 10 -35 10
-19 0 -35 -4 -35 -10z"/>
<path d="M790 1220 c0 -5 14 -10 30 -10 17 0 30 5 30 10 0 6 -13 10 -30 10
-16 0 -30 -4 -30 -10z"/>
<path d="M880 1220 c0 -5 18 -10 40 -10 22 0 40 5 40 10 0 6 -18 10 -40 10
-22 0 -40 -4 -40 -10z"/>
<path d="M1035 1185 c6 -2 22 -6 38 -9 62 -14 18 -21 -125 -20 l-153 0 140 -3
c109 -3 143 -7 156 -19 17 -15 18 -14 17 7 -2 35 -17 49 -52 48 -17 0 -26 -2
-21 -4z"/>
<path d="M790 1090 c0 -5 25 -10 55 -10 30 0 55 5 55 10 0 6 -25 10 -55 10
-30 0 -55 -4 -55 -10z"/>
<path d="M930 1090 c0 -6 33 -10 78 -10 43 0 82 -3 88 -7 5 -5 1 0 -9 10 -15
13 -36 17 -88 17 -39 0 -69 -4 -69 -10z"/>
<path d="M1040 1053 c19 -3 43 -12 53 -20 9 -9 17 -12 17 -7 0 21 -26 34 -64
32 -41 -1 -41 -1 -6 -5z"/>
<path d="M913 1023 c26 -2 67 -2 90 0 23 2 2 3 -48 3 -49 0 -68 -1 -42 -3z"/>
<path d="M940 991 c0 -5 18 -8 40 -7 22 0 40 4 40 8 0 5 -18 8 -40 8 -22 0
-40 -4 -40 -9z"/>
<path d="M850 960 c0 -5 18 -10 40 -10 22 0 40 5 40 10 0 6 -18 10 -40 10 -22
0 -40 -4 -40 -10z"/>
<path d="M1237 1513 c18 -2 50 -2 70 0 21 2 7 4 -32 4 -38 0 -55 -2 -38 -4z"/>
<path d="M1156 1474 c-20 -20 -21 -30 -1 -14 8 7 30 16 48 20 l32 8 -32 1
c-17 1 -39 -6 -47 -15z"/>
<path d="M1163 1443 c-10 -10 -14 -15 -9 -10 6 4 77 7 158 7 92 0 148 4 148
10 0 6 -53 10 -139 10 -118 0 -142 -3 -158 -17z"/>
<path d="M1158 1379 c-10 -5 -18 -15 -18 -21 0 -6 8 -4 18 5 9 8 33 17 52 20
l35 4 -35 1 c-19 1 -43 -3 -52 -9z"/>
<path d="M1350 1350 c0 -5 16 -10 35 -10 19 0 35 5 35 10 0 6 -16 10 -35 10
-19 0 -35 -4 -35 -10z"/>
<path d="M1174 1320 c-12 -5 -25 -15 -29 -22 -6 -10 -5 -11 6 0 7 6 28 12 46
12 18 0 33 5 33 10 0 12 -27 12 -56 0z"/>
<path d="M1260 1320 c0 -5 14 -10 30 -10 17 0 30 5 30 10 0 6 -13 10 -30 10
-16 0 -30 -4 -30 -10z"/>
<path d="M1400 1320 c0 -5 14 -10 30 -10 17 0 30 5 30 10 0 6 -13 10 -30 10
-16 0 -30 -4 -30 -10z"/>
<path d="M1340 1220 c0 -5 14 -10 30 -10 17 0 30 5 30 10 0 6 -13 10 -30 10
-16 0 -30 -4 -30 -10z"/>
<path d="M1300 1188 c0 -5 37 -7 83 -7 85 2 75 6 -26 11 -31 2 -57 0 -57 -4z"/>
<path d="M1149 1173 c-12 -16 -12 -17 1 -6 9 7 45 14 80 16 l65 3 -66 2 c-53
2 -69 -2 -80 -15z"/>
<path d="M1248 1153 c17 -2 47 -2 65 0 17 2 3 4 -33 4 -36 0 -50 -2 -32 -4z"/>
<path d="M1156 1114 c-20 -20 -21 -30 -1 -14 8 7 30 16 48 20 l32 8 -32 1
c-17 1 -39 -6 -47 -15z"/>
<path d="M1149 1043 c-12 -15 -12 -16 1 -7 8 5 42 12 75 15 l60 6 -61 1 c-47
2 -65 -2 -75 -15z"/>
<path d="M1154 978 c-19 -22 -19 -22 0 -8 10 8 46 18 80 21 l61 6 -61 1 c-52
2 -64 -1 -80 -20z"/>
<path d="M1358 854 c-14 -14 -8 -62 8 -68 24 -9 44 -7 44 4 0 6 -9 10 -19 10
-15 0 -21 8 -23 31 -2 17 -6 27 -10 23z"/>
<path d="M1426 827 c-8 -31 -7 -47 3 -47 11 0 20 59 10 65 -3 3 -9 -5 -13 -18z"/>
<path d="M1470 815 c-6 -8 -10 -22 -8 -32 4 -22 48 -31 48 -10 0 11 -7 13 -21
10 -16 -4 -20 -2 -17 8 2 8 14 15 26 17 12 2 20 8 17 13 -9 14 -31 11 -45 -6z"/>
<path d="M1615 820 c-3 -5 -1 -10 4 -10 6 0 11 -9 11 -19 0 -11 5 -23 10 -26
6 -4 10 5 10 19 0 14 5 26 10 26 6 0 10 5 10 10 0 6 -11 10 -24 10 -14 0 -28
-4 -31 -10z"/>
<path d="M1541 785 c1 -22 3 -32 6 -22 5 21 33 23 33 2 0 -8 5 -15 10 -15 6 0
10 16 10 35 0 19 -4 35 -10 35 -5 0 -10 -7 -10 -15 0 -20 -17 -19 -29 3 -8 13
-10 9 -10 -23z"/>
<path d="M723 869 c-11 -28 -10 -31 15 -42 15 -6 39 -19 55 -30 15 -10 27 -14
27 -8 0 5 -8 15 -17 21 -13 8 -13 10 -3 7 9 -3 23 1 33 8 16 11 16 13 -2 29
-17 16 -19 15 -35 -9 -14 -22 -19 -23 -37 -12 -15 9 -19 19 -15 40 7 36 -7 34
-21 -4z"/>
<path d="M863 808 c4 -12 0 -21 -13 -28 -11 -6 -20 -16 -20 -22 0 -6 10 -4 24
5 17 12 26 13 35 4 8 -8 11 -7 11 4 0 9 -10 24 -22 35 -19 17 -21 17 -15 2z"/>
<path d="M916 716 c3 -8 -3 -19 -16 -26 -11 -6 -18 -16 -14 -21 4 -6 13 -4 24
6 13 12 23 14 36 7 15 -9 14 -11 -9 -27 -15 -9 -24 -22 -21 -27 4 -6 10 -5 15
3 8 12 11 12 18 -1 6 -9 6 -19 -1 -27 -16 -19 4 -15 30 6 26 22 29 36 6 27
-23 -9 -37 3 -24 20 9 10 7 20 -10 44 -22 31 -44 41 -34 16z"/>
<path d="M995 593 c-17 -25 -17 -27 1 -40 23 -17 44 -16 22 1 -10 7 -18 16
-18 19 0 4 8 3 18 0 15 -6 15 -5 3 10 -15 19 -1 23 17 5 9 -9 12 -9 12 0 0 6
-9 16 -19 21 -15 9 -22 6 -36 -16z"/>
<path d="M1055 559 c-4 -17 -4 -33 -1 -36 3 -4 6 1 6 10 0 24 15 21 28 -5 l11
-23 0 22 c1 12 6 25 13 29 7 5 5 11 -7 21 -29 20 -43 16 -50 -18z"/>
<path d="M1213 582 c-8 -5 -6 -16 6 -40 17 -33 17 -33 39 -15 41 34 1 84 -45
55z"/>
<path d="M1130 561 c0 -11 -3 -26 -6 -35 -5 -13 1 -16 27 -15 24 1 27 3 12 6
-13 2 -23 9 -23 14 0 6 5 7 10 4 6 -3 10 -2 10 4 0 5 -6 12 -12 14 -7 3 -3 6
10 6 30 1 28 21 -3 21 -18 0 -25 -5 -25 -19z"/>
<path d="M944 362 c-18 -12 -35 -95 -21 -104 7 -5 13 -1 16 10 2 9 9 36 16 59
13 42 11 50 -11 35z"/>
<path d="M1247 363 c-3 -5 -5 -29 -5 -55 -1 -42 2 -49 22 -54 29 -7 66 11 66
31 0 9 -4 23 -9 33 -5 9 -12 25 -15 35 -5 17 -50 25 -59 10z"/>
<path d="M853 344 c-8 -20 8 -36 26 -25 15 10 8 41 -9 41 -6 0 -13 -7 -17 -16z"/>
<path d="M1004 343 c-3 -10 -10 -26 -15 -35 -14 -28 -11 -46 12 -58 39 -22 92
10 72 43 -4 6 -7 23 -7 37 -1 20 -7 26 -29 28 -19 2 -29 -2 -33 -15z"/>
<path d="M1125 336 c-9 -14 -15 -39 -13 -58 3 -30 7 -33 38 -36 23 -3 38 2 47
14 17 23 -1 54 -32 54 -14 0 -25 5 -25 10 0 6 14 10 31 10 38 0 35 24 -4 28
-18 2 -30 -4 -42 -22z m50 -55 c3 -5 1 -13 -5 -16 -15 -9 -43 3 -35 15 8 13
32 13 40 1z"/>
<path d="M1363 344 c-7 -18 17 -38 31 -24 11 11 1 40 -14 40 -6 0 -13 -7 -17
-16z"/>
<path d="M1557 2064 c-14 -15 -6 -34 14 -34 14 0 19 5 17 17 -3 18 -20 27 -31
17z"/>
<path d="M616 2031 c-9 -15 23 -36 36 -23 5 5 7 15 4 21 -9 13 -33 14 -40 2z"/>
<path d="M1594 2029 c-3 -6 -1 -16 4 -21 13 -13 45 8 36 23 -7 12 -31 11 -40
-2z"/>
<path d="M575 2011 c-8 -15 3 -31 21 -31 9 0 14 7 12 17 -4 20 -24 28 -33 14z"/>
<path d="M1647 2014 c-14 -14 -7 -35 11 -32 9 2 17 10 17 17 0 16 -18 25 -28
15z"/>
<path d="M532 1973 c2 -10 10 -18 18 -18 22 0 18 29 -3 33 -14 3 -18 -1 -15
-15z"/>
<path d="M1684 1979 c-3 -6 -2 -15 4 -21 13 -13 32 -2 32 18 0 16 -26 19 -36
3z"/>
<path d="M490 1940 c0 -15 5 -20 18 -18 9 2 17 10 17 18 0 8 -8 16 -17 18 -13
2 -18 -3 -18 -18z"/>
<path d="M1725 1950 c-8 -14 3 -30 21 -30 8 0 14 9 14 20 0 21 -24 28 -35 10z"/>
<path d="M450 1910 c0 -15 5 -20 18 -18 9 2 17 10 17 18 0 8 -8 16 -17 18 -13
2 -18 -3 -18 -18z"/>
<path d="M1765 1920 c-8 -14 3 -30 21 -30 8 0 14 9 14 20 0 21 -24 28 -35 10z"/>
<path d="M413 1884 c-7 -19 11 -39 26 -30 16 10 13 33 -4 40 -9 3 -18 -1 -22
-10z"/>
<path d="M1811 1891 c-15 -10 -8 -41 9 -41 15 0 25 29 14 40 -5 5 -15 5 -23 1z"/>
<path d="M375 1850 c-8 -14 3 -30 21 -30 8 0 14 9 14 20 0 21 -24 28 -35 10z"/>
<path d="M1840 1840 c0 -15 5 -20 18 -18 9 2 17 10 17 18 0 8 -8 16 -17 18
-13 2 -18 -3 -18 -18z"/>
<path d="M342 1803 c2 -10 10 -18 18 -18 22 0 18 29 -3 33 -14 3 -18 -1 -15
-15z"/>
<path d="M1874 1809 c-3 -6 -2 -15 4 -21 13 -13 32 -2 32 18 0 16 -26 19 -36
3z"/>
<path d="M306 1771 c-9 -15 23 -36 36 -23 5 5 7 15 4 21 -9 13 -33 14 -40 2z"/>
<path d="M1904 1769 c-3 -6 -1 -16 4 -21 13 -13 45 8 36 23 -7 12 -31 11 -40
-2z"/>
<path d="M275 1730 c-8 -13 3 -30 20 -30 14 0 27 24 18 34 -10 9 -31 7 -38 -4z"/>
<path d="M1937 1733 c-3 -5 -2 -15 3 -22 10 -17 43 -6 38 12 -6 15 -34 22 -41
10z"/>
<path d="M247 1693 c-3 -5 -2 -15 3 -22 10 -17 43 -6 38 12 -6 15 -34 22 -41
10z"/>
<path d="M1965 1690 c-8 -14 3 -30 21 -30 8 0 14 9 14 20 0 21 -24 28 -35 10z"/>
<path d="M227 1654 c-14 -15 -6 -34 14 -34 14 0 19 5 17 17 -3 18 -20 27 -31
17z"/>
<path d="M1997 1654 c-14 -15 -6 -34 14 -34 14 0 19 5 17 17 -3 18 -20 27 -31
17z"/>
<path d="M195 1600 c-4 -7 -3 -16 3 -22 14 -14 45 -2 40 15 -6 16 -34 21 -43
7z"/>
<path d="M2015 1600 c-4 -7 -3 -16 3 -22 14 -14 45 -2 40 15 -6 16 -34 21 -43
7z"/>
<path d="M173 1554 c-7 -18 17 -38 31 -24 11 11 1 40 -14 40 -6 0 -13 -7 -17
-16z"/>
<path d="M2043 1554 c-8 -20 8 -36 26 -25 15 10 8 41 -9 41 -6 0 -13 -7 -17
-16z"/>
<path d="M155 1510 c-8 -14 3 -30 21 -30 8 0 14 9 14 20 0 21 -24 28 -35 10z"/>
<path d="M2060 1500 c0 -15 5 -20 18 -18 9 2 17 10 17 18 0 8 -8 16 -17 18
-13 2 -18 -3 -18 -18z"/>
<path d="M135 1460 c-4 -7 -3 -16 3 -22 14 -14 45 -2 40 15 -6 16 -34 21 -43
7z"/>
<path d="M2075 1460 c-4 -7 -3 -16 3 -22 14 -14 45 -2 40 15 -6 16 -34 21 -43
7z"/>
<path d="M122 1403 c2 -10 10 -18 18 -18 8 0 16 8 18 18 2 12 -3 17 -18 17
-15 0 -20 -5 -18 -17z"/>
<path d="M2092 1403 c2 -10 10 -18 18 -18 8 0 16 8 18 18 2 12 -3 17 -18 17
-15 0 -20 -5 -18 -17z"/>
<path d="M112 1353 c4 -21 33 -25 33 -3 0 8 -8 16 -18 18 -14 3 -18 -1 -15
-15z"/>
<path d="M2104 1359 c-3 -6 -2 -15 4 -21 13 -13 32 -2 32 18 0 16 -26 19 -36
3z"/>
<path d="M102 1303 c4 -21 33 -25 33 -3 0 8 -8 16 -18 18 -14 3 -18 -1 -15
-15z"/>
<path d="M2114 1309 c-8 -14 11 -33 25 -25 6 4 11 14 11 22 0 16 -26 19 -36 3z"/>
<path d="M92 1253 c2 -10 10 -18 18 -18 8 0 16 8 18 18 2 12 -3 17 -18 17 -15
0 -20 -5 -18 -17z"/>
<path d="M2122 1253 c2 -10 10 -18 18 -18 8 0 16 8 18 18 2 12 -3 17 -18 17
-15 0 -20 -5 -18 -17z"/>
<path d="M85 1210 c-4 -7 -3 -16 3 -22 14 -14 45 -2 40 15 -6 16 -34 21 -43 7z"/>
<path d="M2125 1210 c-4 -7 -3 -16 3 -22 14 -14 45 -2 40 15 -6 16 -34 21 -43
7z"/>
<path d="M85 1160 c-8 -14 3 -30 21 -30 8 0 14 9 14 20 0 21 -24 28 -35 10z"/>
<path d="M2130 1150 c0 -15 5 -20 18 -18 9 2 17 10 17 18 0 8 -8 16 -17 18
-13 2 -18 -3 -18 -18z"/>
<path d="M85 1110 c-8 -14 3 -30 21 -30 8 0 14 9 14 20 0 21 -24 28 -35 10z"/>
<path d="M2130 1100 c0 -15 5 -20 18 -18 9 2 17 10 17 18 0 8 -8 16 -17 18
-13 2 -18 -3 -18 -18z"/>
<path d="M85 1060 c-4 -7 -3 -16 3 -22 14 -14 45 -2 40 15 -6 16 -34 21 -43 7z"/>
<path d="M2125 1060 c-4 -7 -3 -16 3 -22 14 -14 45 -2 40 15 -6 16 -34 21 -43
7z"/>
<path d="M97 1014 c-14 -15 -6 -34 14 -34 14 0 19 5 17 17 -3 18 -20 27 -31
17z"/>
<path d="M2127 1014 c-14 -15 -6 -34 14 -34 14 0 19 5 17 17 -3 18 -20 27 -31
17z"/>
<path d="M107 964 c-14 -14 -7 -35 11 -32 9 2 17 10 17 17 0 16 -18 25 -28 15z"/>
<path d="M2115 961 c-8 -15 3 -31 21 -31 9 0 14 7 12 17 -4 20 -24 28 -33 14z"/>
<path d="M117 914 c-14 -14 -7 -35 11 -32 9 2 17 10 17 17 0 16 -18 25 -28 15z"/>
<path d="M2105 911 c-8 -15 3 -31 21 -31 9 0 14 7 12 17 -4 20 -24 28 -33 14z"/>
<path d="M127 864 c-14 -15 -6 -34 14 -34 14 0 19 5 17 17 -3 18 -20 27 -31
17z"/>
<path d="M2097 864 c-14 -15 -6 -34 14 -34 14 0 19 5 17 17 -3 18 -20 27 -31
17z"/>
<path d="M135 810 c-4 -7 -3 -16 3 -22 14 -14 45 -2 40 15 -6 16 -34 21 -43 7z"/>
<path d="M2075 810 c-4 -7 -3 -16 3 -22 14 -14 45 -2 40 15 -6 16 -34 21 -43
7z"/>
<path d="M154 759 c-8 -14 11 -33 25 -25 16 10 13 36 -3 36 -8 0 -18 -5 -22
-11z"/>
<path d="M2062 753 c2 -10 10 -18 18 -18 22 0 18 29 -3 33 -14 3 -18 -1 -15
-15z"/>
<path d="M181 721 c-15 -10 -8 -41 9 -41 15 0 25 29 14 40 -5 5 -15 5 -23 1z"/>
<path d="M2043 714 c-7 -19 11 -39 26 -30 16 10 13 33 -4 40 -9 3 -18 -1 -22
-10z"/>
<path d="M195 670 c-4 -7 -3 -16 3 -22 14 -14 45 -2 40 15 -6 16 -34 21 -43 7z"/>
<path d="M2015 670 c-4 -7 -3 -16 3 -22 14 -14 45 -2 40 15 -6 16 -34 21 -43
7z"/>
<path d="M222 613 c2 -10 10 -18 18 -18 8 0 16 8 18 18 2 12 -3 17 -18 17 -15
0 -20 -5 -18 -17z"/>
<path d="M1992 613 c2 -10 10 -18 18 -18 8 0 16 8 18 18 2 12 -3 17 -18 17
-15 0 -20 -5 -18 -17z"/>
<path d="M246 575 c-3 -9 1 -18 10 -22 19 -7 39 11 30 26 -10 16 -33 13 -40
-4z"/>
<path d="M1964 579 c-9 -15 11 -33 30 -26 9 4 13 13 10 22 -7 17 -30 20 -40 4z"/>
<path d="M274 539 c-9 -15 11 -33 30 -26 9 4 13 13 10 22 -7 17 -30 20 -40 4z"/>
<path d="M1936 535 c-3 -9 1 -18 10 -22 19 -7 39 11 30 26 -10 16 -33 13 -40
-4z"/>
<path d="M310 495 c-10 -12 -9 -16 5 -21 19 -8 40 9 31 25 -10 15 -21 14 -36
-4z"/>
<path d="M1904 499 c-9 -16 12 -33 31 -25 14 5 15 9 5 21 -15 18 -26 19 -36 4z"/>
<path d="M347 464 c-14 -14 -7 -35 11 -32 9 2 17 10 17 17 0 16 -18 25 -28 15z"/>
<path d="M1875 461 c-8 -15 3 -31 21 -31 9 0 14 7 12 17 -4 20 -24 28 -33 14z"/>
<path d="M375 420 c-8 -14 3 -30 21 -30 8 0 14 9 14 20 0 21 -24 28 -35 10z"/>
<path d="M1840 410 c0 -15 5 -20 18 -18 9 2 17 10 17 18 0 8 -8 16 -17 18 -13
2 -18 -3 -18 -18z"/>
<path d="M413 384 c-8 -20 8 -36 26 -25 15 10 8 41 -9 41 -6 0 -13 -7 -17 -16z"/>
<path d="M1803 384 c-7 -18 17 -38 31 -24 11 11 1 40 -14 40 -6 0 -13 -7 -17
-16z"/>
<path d="M450 340 c0 -15 5 -20 18 -18 9 2 17 10 17 18 0 8 -8 16 -17 18 -13
2 -18 -3 -18 -18z"/>
<path d="M1765 350 c-8 -14 3 -30 21 -30 8 0 14 9 14 20 0 21 -24 28 -35 10z"/>
<path d="M490 310 c0 -15 5 -20 18 -18 9 2 17 10 17 18 0 8 -8 16 -17 18 -13
2 -18 -3 -18 -18z"/>
<path d="M1725 320 c-8 -14 3 -30 21 -30 8 0 14 9 14 20 0 21 -24 28 -35 10z"/>
<path d="M537 294 c-14 -14 -7 -35 11 -32 9 2 17 10 17 17 0 16 -18 25 -28 15z"/>
<path d="M1685 291 c-8 -15 3 -31 21 -31 9 0 14 7 12 17 -4 20 -24 28 -33 14z"/>
<path d="M574 259 c-8 -14 11 -33 25 -25 6 4 11 14 11 22 0 16 -26 19 -36 3z"/>
<path d="M1642 253 c2 -10 10 -18 18 -18 22 0 18 29 -3 33 -14 3 -18 -1 -15
-15z"/>
<path d="M620 235 c-10 -12 -9 -16 5 -21 19 -8 40 9 31 25 -10 15 -21 14 -36
-4z"/>
<path d="M1594 239 c-9 -16 12 -33 31 -25 14 5 15 9 5 21 -15 18 -26 19 -36 4z"/>
<path d="M662 203 c2 -10 10 -18 18 -18 8 0 16 8 18 18 2 12 -3 17 -18 17 -15
0 -20 -5 -18 -17z"/>
<path d="M1552 203 c2 -10 10 -18 18 -18 8 0 16 8 18 18 2 12 -3 17 -18 17
-15 0 -20 -5 -18 -17z"/>
<path d="M712 183 c4 -21 33 -25 33 -3 0 8 -8 16 -18 18 -14 3 -18 -1 -15 -15z"/>
<path d="M1502 183 c2 -10 10 -18 18 -18 8 0 16 8 18 18 2 12 -3 17 -18 17
-15 0 -20 -5 -18 -17z"/>
<path d="M761 176 c-9 -10 -8 -16 3 -25 10 -9 16 -8 25 3 9 10 8 16 -3 25 -10
9 -16 8 -25 -3z"/>
<path d="M1461 176 c-9 -10 -8 -16 3 -25 10 -9 16 -8 25 3 9 10 8 16 -3 25
-10 9 -16 8 -25 -3z"/>
<path d="M805 160 c-8 -14 3 -30 21 -30 8 0 14 9 14 20 0 21 -24 28 -35 10z"/>
<path d="M1410 150 c0 -15 5 -20 18 -18 9 2 17 10 17 18 0 8 -8 16 -17 18 -13
2 -18 -3 -18 -18z"/>
<path d="M860 144 c-9 -10 -10 -18 -2 -26 12 -12 32 -2 32 17 0 21 -16 26 -30
9z"/>
<path d="M1364 146 c-9 -24 12 -44 28 -28 10 9 8 16 -5 29 -15 15 -17 15 -23
-1z"/>
<path d="M904 129 c-8 -14 11 -33 25 -25 16 10 13 36 -3 36 -8 0 -18 -5 -22
-11z"/>
<path d="M960 124 c-9 -10 -10 -18 -2 -26 12 -12 32 -2 32 17 0 21 -16 26 -30
9z"/>
<path d="M1264 126 c-9 -24 12 -44 28 -28 10 9 8 16 -5 29 -15 15 -17 15 -23
-1z"/>
<path d="M1312 123 c2 -10 10 -18 18 -18 22 0 18 29 -3 33 -14 3 -18 -1 -15
-15z"/>
<path d="M1005 120 c-8 -14 3 -30 21 -30 8 0 14 9 14 20 0 21 -24 28 -35 10z"/>
<path d="M1062 117 c-13 -15 1 -42 17 -33 13 9 15 33 2 40 -5 3 -13 0 -19 -7z"/>
<path d="M1164 117 c-6 -17 2 -37 16 -37 15 0 19 29 5 40 -12 10 -16 9 -21 -3z"/>
<path d="M1210 110 c0 -15 5 -20 18 -18 22 4 22 32 0 36 -13 2 -18 -3 -18 -18z"/>
<path d="M1107 114 c-9 -9 4 -34 18 -34 14 0 27 25 18 34 -8 8 -28 8 -36 0z"/>
</g>
</svg>
